<svg width="176" height="61" xmlns="http://www.w3.org/2000/svg" xmlns:xlink="http://www.w3.org/1999/xlink" xml:space="preserve" overflow="hidden"><defs><clipPath id="clip0"><rect x="9" y="651" width="176" height="61"/></clipPath></defs><g clip-path="url(#clip0)" transform="translate(-9 -651)"><path d="M4.95019 0.657471 169.583 0.949918C171.883 0.949918 173.939 0.60885 173.939 5.54021L173.737 59.7562 0.794937 59.7562 0.794937 5.33866C0.794937 2.90681 1.03032 0.657471 4.95019 0.657471Z" fill="#AAB2AB" transform="matrix(1.00984 0 0 1 9 651)"/><path d="M171.022-2.05853e-06 3.26441-2.05853e-06C1.46446-2.05853e-06-2.96412e-05 1.46433-2.96412e-05 3.26337L-2.96412e-05 60.2636C-2.96412e-05 60.6702 0.329804 61 0.737146 61L173.548 61C173.956 61 174.286 60.6702 174.286 60.2636L174.286 3.26337C174.286 1.46433 172.822-2.05853e-06 171.022-2.05853e-06ZM3.26441 1.4742 171.022 1.4742C172.01 1.4742 172.812 2.27682 172.812 3.26338 172.812 3.26338 172.812 26.2057 172.812 42.798L52.9078 42.798C48.5129 50.7442 40.0445 56.1392 30.3272 56.1392 20.6071 56.1392 12.1416 50.7491 7.74953 42.798L1.47434 42.798C1.47434 26.2057 1.47434 3.26338 1.47434 3.26338 1.47433 2.27682 2.27774 1.4742 3.26441 1.4742Z" transform="matrix(1.00984 0 0 1 9 651)"/><path d="M612.592-70.1785C612.6-59.2425 603.738-50.3727 592.803-50.3657 581.868-50.3586 572.997-59.2194 572.991-70.1546 572.991-70.163 572.991-70.1701 572.991-70.1785 572.983-81.1145 581.844-89.9843 592.779-89.9913 603.716-89.9976 612.586-81.1378 612.592-70.2024 612.592-70.1948 612.592-70.1863 612.592-70.1785Z" fill="#FFFFFF" transform="matrix(1.00995 0 0 1 -559.055 749.574)"/><path d="M973.743-211.108C978.133-206.717 980.328-201.341 980.328-194.98 980.328-188.619 978.171-183.299 973.855-179.021 969.275-174.516 963.862-172.263 957.616-172.263 951.446-172.263 946.127-174.497 941.662-178.965 937.195-183.431 934.963-188.769 934.963-194.98 934.963-201.189 937.195-206.565 941.662-211.108 946.015-215.501 951.334-217.696 957.616-217.696 963.977-217.696 969.351-215.501 973.743-211.108ZM944.618-208.154C940.905-204.404 939.05-200.011 939.05-194.974 939.05-189.937 940.888-185.582 944.56-181.908 948.236-178.235 952.609-176.397 957.685-176.397 962.759-176.397 967.171-178.252 970.921-181.964 974.481-185.412 976.261-189.747 976.261-194.974 976.261-200.161 974.451-204.564 970.834-208.182 967.217-211.798 962.835-213.607 957.685-213.607 952.534-213.607 948.177-211.789 944.618-208.154ZM954.386-197.19C953.819-198.427 952.972-199.045 951.838-199.045 949.837-199.045 948.836-197.697 948.836-195.003 948.836-192.307 949.837-190.96 951.838-190.96 953.161-190.96 954.104-191.616 954.671-192.931L957.446-191.454C956.122-189.103 954.138-187.928 951.493-187.928 949.452-187.928 947.818-188.554 946.59-189.803 945.361-191.056 944.746-192.782 944.746-194.98 944.746-197.14 945.38-198.855 946.646-200.126 947.912-201.396 949.491-202.032 951.38-202.032 954.177-202.032 956.179-200.93 957.391-198.728L954.386-197.19ZM967.443-197.19C966.875-198.427 966.042-199.045 964.945-199.045 962.904-199.045 961.881-197.697 961.881-195.003 961.881-192.307 962.904-190.96 964.945-190.96 966.27-190.96 967.197-191.616 967.726-192.931L970.563-191.454C969.243-189.103 967.261-187.928 964.62-187.928 962.581-187.928 960.951-188.554 959.724-189.803 958.498-191.056 957.885-192.782 957.885-194.98 957.885-197.14 958.507-198.855 959.753-200.126 960.998-201.396 962.581-202.032 964.508-202.032 967.299-202.032 969.298-200.93 970.505-198.728L967.443-197.19Z" transform="matrix(1.00995 0 0 1 -927.539 874.376)"/><path d="M725.566 130.222C725.566 138.835 718.583 145.817 709.97 145.817 701.357 145.817 694.375 138.835 694.375 130.222 694.375 121.608 701.357 114.626 709.97 114.626 718.583 114.626 725.566 121.608 725.566 130.222Z" fill="#FFFFFF" transform="matrix(1.00995 0 0 1 -632.114 542.889)"/><path d="M714.485 125.709C714.485 125.108 713.997 124.621 713.396 124.621L706.508 124.621C705.908 124.621 705.42 125.108 705.42 125.709L705.42 132.597 707.342 132.597 707.342 140.754 712.562 140.754 712.562 132.597 714.485 132.597 714.485 125.709 714.485 125.709Z" transform="matrix(1.00995 0 0 1 -632.114 542.889)"/><path d="M712.309 121.358C712.309 122.659 711.254 123.714 709.953 123.714 708.652 123.714 707.597 122.659 707.597 121.358 707.597 120.057 708.652 119.002 709.953 119.002 711.254 119.002 712.309 120.057 712.309 121.358Z" transform="matrix(1.00995 0 0 1 -632.114 542.889)"/><path d="M709.93 113.038C705.267 113.038 701.318 114.666 698.086 117.921 694.771 121.289 693.112 125.275 693.112 129.878 693.112 134.48 694.771 138.438 698.086 141.751 701.402 145.062 705.352 146.719 709.93 146.719 714.567 146.719 718.588 145.049 721.988 141.708 725.192 138.537 726.792 134.593 726.792 129.878 726.792 125.162 725.163 121.177 721.903 117.921 718.644 114.666 714.653 113.038 709.93 113.038ZM709.975 116.068C713.796 116.068 717.04 117.416 719.71 120.111 722.409 122.777 723.758 126.033 723.758 129.878 723.758 133.751 722.437 136.965 719.794 139.519 717.013 142.27 713.738 143.644 709.975 143.644 706.206 143.644 702.961 142.284 700.236 139.561 697.51 136.839 696.147 133.611 696.147 129.878 696.147 126.144 697.524 122.889 700.278 120.111 702.92 117.416 706.152 116.068 709.975 116.068Z" fill-rule="evenodd" transform="matrix(1.00995 0 0 1 -632.114 542.889)"/><path d="M705.088 155.672C705.545 155.672 705.964 155.714 706.342 155.794 706.72 155.874 707.043 156.007 707.315 156.192 707.583 156.375 707.792 156.619 707.943 156.924 708.09 157.229 708.165 157.606 708.165 158.056 708.165 158.54 708.055 158.944 707.833 159.266 707.614 159.591 707.286 159.855 706.856 160.061 707.45 160.231 707.893 160.53 708.186 160.957 708.481 161.384 708.627 161.9 708.627 162.501 708.627 162.986 708.533 163.406 708.344 163.761 708.155 164.115 707.899 164.405 707.58 164.629 707.261 164.854 706.896 165.021 706.488 165.128 706.078 165.236 705.658 165.29 705.225 165.29L700.553 165.29 700.553 155.672 705.088 155.672 705.088 155.672ZM704.817 159.562C705.195 159.562 705.505 159.472 705.747 159.293 705.991 159.114 706.113 158.824 706.113 158.42 706.113 158.196 706.072 158.012 705.991 157.87 705.909 157.726 705.802 157.615 705.667 157.533 705.532 157.453 705.377 157.397 705.202 157.365 705.026 157.335 704.844 157.319 704.655 157.319L702.674 157.319 702.674 159.562 704.817 159.562ZM704.941 163.644C705.149 163.644 705.346 163.624 705.535 163.584 705.723 163.542 705.89 163.474 706.035 163.382 706.179 163.288 706.293 163.16 706.38 162.996 706.463 162.836 706.507 162.63 706.507 162.379 706.507 161.885 706.368 161.533 706.088 161.321 705.81 161.112 705.44 161.005 704.983 161.005L702.674 161.005 702.674 163.644 704.941 163.644Z" fill="#FFFFFF" transform="matrix(1.00995 0 0 1 -632.114 542.889)"/><path d="M709 155.672 711.372 155.672 713.623 159.471 715.863 155.672 718.221 155.672 714.649 161.599 714.649 165.29 712.529 165.29 712.529 161.546 709 155.672Z" fill="#FFFFFF" transform="matrix(1.00995 0 0 1 -632.114 542.889)"/><path d="M777.757 162.913C777.874 163.136 778.027 163.318 778.22 163.458 778.413 163.597 778.638 163.701 778.9 163.769 779.158 163.835 779.427 163.87 779.705 163.87 779.893 163.87 780.095 163.854 780.31 163.822 780.523 163.79 780.725 163.73 780.914 163.64 781.102 163.551 781.258 163.427 781.385 163.269 781.509 163.112 781.573 162.913 781.573 162.67 781.573 162.409 781.489 162.2 781.323 162.037 781.158 161.875 780.94 161.741 780.672 161.633 780.404 161.526 780.098 161.431 779.757 161.35 779.416 161.269 779.072 161.179 778.721 161.08 778.362 160.99 778.012 160.881 777.672 160.751 777.332 160.621 777.026 160.452 776.757 160.244 776.49 160.039 776.27 159.781 776.106 159.471 775.94 159.16 775.856 158.785 775.856 158.347 775.856 157.852 775.961 157.423 776.172 157.059 776.383 156.696 776.66 156.392 776.999 156.149 777.34 155.906 777.727 155.727 778.158 155.61 778.588 155.493 779.02 155.436 779.448 155.436 779.952 155.436 780.434 155.492 780.896 155.604 781.358 155.716 781.769 155.899 782.127 156.15 782.486 156.403 782.77 156.724 782.983 157.114 783.192 157.507 783.297 157.98 783.297 158.537L781.245 158.537C781.228 158.248 781.169 158.01 781.065 157.823 780.962 157.635 780.825 157.486 780.655 157.378 780.486 157.271 780.291 157.193 780.073 157.15 779.855 157.104 779.616 157.082 779.356 157.082 779.187 157.082 779.017 157.1 778.846 157.136 778.676 157.172 778.523 157.234 778.385 157.325 778.245 157.414 778.132 157.525 778.043 157.661 777.953 157.797 777.908 157.967 777.908 158.173 777.908 158.361 777.943 158.515 778.015 158.631 778.087 158.748 778.229 158.856 778.439 158.956 778.652 159.054 778.942 159.152 779.314 159.251 779.685 159.35 780.173 159.477 780.773 159.628 780.952 159.664 781.202 159.731 781.519 159.824 781.838 159.92 782.154 160.068 782.467 160.276 782.782 160.482 783.052 160.76 783.283 161.104 783.511 161.449 783.625 161.892 783.625 162.432 783.625 162.871 783.538 163.281 783.368 163.657 783.198 164.036 782.944 164.362 782.607 164.634 782.27 164.91 781.853 165.122 781.355 165.275 780.857 165.428 780.281 165.505 779.623 165.505 779.093 165.505 778.581 165.438 778.081 165.308 777.582 165.177 777.143 164.974 776.762 164.694 776.38 164.415 776.077 164.059 775.852 163.627 775.628 163.196 775.52 162.685 775.53 162.09L777.581 162.09C777.581 162.413 777.638 162.689 777.757 162.913Z" fill="#FFFFFF" transform="matrix(1.00995 0 0 1 -632.114 542.889)"/><path d="M789.672 155.672 793.27 165.29 791.073 165.29 790.346 163.148 786.749 163.148 785.995 165.29 783.866 165.29 787.503 155.672 789.672 155.672ZM789.793 161.569 788.582 158.043 788.553 158.043 787.302 161.569 789.793 161.569Z" fill="#FFFFFF" transform="matrix(1.00995 0 0 1 -632.114 542.889)"/><path d="M740.111 155.672 744.129 162.125 744.151 162.125 744.151 155.672 746.135 155.672 746.135 165.29 744.021 165.29 740.017 158.85 739.991 158.85 739.991 165.29 738.007 165.29 738.007 155.672 740.111 155.672Z" fill="#FFFFFF" transform="matrix(1.00995 0 0 1 -632.114 542.889)"/><path d="M754.165 158.235C754.039 158.032 753.882 157.854 753.693 157.701 753.504 157.55 753.29 157.43 753.052 157.345 752.814 157.26 752.565 157.218 752.306 157.218 751.83 157.218 751.424 157.309 751.092 157.494 750.759 157.677 750.491 157.924 750.284 158.234 750.078 158.543 749.926 158.896 749.833 159.29 749.737 159.684 749.691 160.094 749.691 160.516 749.691 160.92 749.737 161.312 749.833 161.693 749.926 162.076 750.078 162.419 750.284 162.724 750.491 163.03 750.759 163.274 751.092 163.458 751.424 163.643 751.83 163.734 752.306 163.734 752.951 163.734 753.458 163.536 753.821 163.141 754.185 162.747 754.407 162.224 754.487 161.578L756.535 161.578C756.481 162.18 756.343 162.724 756.118 163.209 755.894 163.695 755.597 164.108 755.229 164.45 754.861 164.793 754.429 165.053 753.935 165.233 753.442 165.414 752.898 165.505 752.306 165.505 751.569 165.505 750.906 165.376 750.317 165.119 749.73 164.864 749.232 164.51 748.828 164.063 748.423 163.613 748.112 163.085 747.896 162.478 747.681 161.871 747.571 161.218 747.571 160.517 747.571 159.798 747.681 159.132 747.896 158.515 748.112 157.899 748.423 157.362 748.828 156.905 749.232 156.446 749.73 156.086 750.317 155.827 750.906 155.565 751.569 155.436 752.306 155.436 752.836 155.436 753.337 155.512 753.807 155.665 754.279 155.818 754.702 156.04 755.074 156.333 755.448 156.625 755.754 156.987 755.996 157.419 756.239 157.85 756.392 158.345 756.455 158.901L754.407 158.901C754.37 158.66 754.291 158.436 754.165 158.235Z" fill="#FFFFFF" transform="matrix(1.00995 0 0 1 -632.114 542.889)"/><path d="M581.398-327.525C581.405-319.036 574.528-312.148 566.038-312.142 557.548-312.137 550.662-319.012 550.655-327.504 550.655-327.51 550.655-327.519 550.655-327.525 550.648-336.014 557.527-342.901 566.016-342.909 574.505-342.915 581.392-336.036 581.398-327.548 581.398-327.54 581.398-327.533 581.398-327.525Z" fill="#FFFFFF" transform="matrix(1.00995 0 0 1 -410.132 1000.28)"/><path d="M587.521-263.431C582.856-263.431 578.907-261.802 575.677-258.548 572.36-255.18 570.701-251.193 570.701-246.59 570.701-241.987 572.36-238.03 575.677-234.717 578.992-231.406 582.94-229.75 587.521-229.75 592.158-229.75 596.176-231.421 599.577-234.76 602.78-237.932 604.382-241.875 604.382-246.59 604.382-251.305 602.753-255.292 599.492-258.548 596.232-261.802 592.243-263.431 587.521-263.431ZM587.563-260.4C591.386-260.4 594.63-259.053 597.301-256.357 599.998-253.691 601.347-250.437 601.347-246.59 601.347-242.717 600.027-239.504 597.384-236.948 594.603-234.199 591.328-232.823 587.563-232.823 583.797-232.823 580.552-234.185 577.826-236.907 575.1-239.63 573.737-242.857 573.737-246.59 573.737-250.323 575.113-253.58 577.869-256.357 580.51-259.053 583.741-260.4 587.563-260.4Z" transform="matrix(1.00995 0 0 1 -431.952 919.348)"/><path d="M580.057-248.966C580.728-253.204 583.71-255.469 587.449-255.469 592.824-255.469 596.101-251.568 596.101-246.366 596.101-241.289 592.614-237.348 587.365-237.348 583.752-237.348 580.518-239.569 579.93-243.933L584.173-243.933C584.299-241.668 585.769-240.871 587.869-240.871 590.262-240.871 591.817-243.093 591.817-246.492 591.817-250.058 590.474-251.945 587.952-251.945 586.105-251.945 584.509-251.273 584.173-248.966L585.406-248.975 582.066-245.635 578.728-248.975 580.057-248.966Z" transform="matrix(1.00995 0 0 1 -431.952 919.348)"/><path d="M127.521 21.7584C127.528 29.7474 121.056 36.2269 113.065 36.2333 105.076 36.2382 98.5952 29.7671 98.5895 21.7796 98.5895 21.7712 98.5895 21.7648 98.5895 21.7584 98.5838 13.7688 105.056 7.28924 113.045 7.28288 121.034 7.27792 127.515 13.749 127.521 21.7366 127.521 21.7436 127.521 21.7514 127.521 21.7584Z" fill="#FFFFFF" transform="matrix(1.00984 0 0 1 9.00073 651.014)"/><path d="M125.007 9.79712C121.746 6.54046 117.756 4.91316 113.034 4.91316 108.368 4.91316 104.42 6.54046 101.188 9.79712 97.8701 13.1658 96.213 17.1513 96.213 21.7556 96.213 26.359 97.8701 30.3179 101.188 33.629 104.504 36.9422 108.452 38.5982 113.034 38.5982 117.671 38.5982 121.691 36.9278 125.091 33.5878 128.295 30.4155 129.898 26.4711 129.898 21.7556 129.898 17.0393 128.268 13.0528 125.007 9.79712ZM122.899 31.3982C120.116 34.1491 116.842 35.5235 113.076 35.5235 109.31 35.5235 106.063 34.1625 103.337 31.4394 100.611 28.7162 99.2477 25.4883 99.2477 21.7556 99.2477 20.1768 99.497 18.684 99.9899 17.2768L104.453 19.252 104.131 19.252 104.131 21.2536 105.711 21.2536C105.711 21.5362 105.682 21.818 105.682 22.0996L105.682 22.5796 104.131 22.5796 104.131 24.5811 105.964 24.5811C106.218 26.0758 106.782 27.2878 107.543 28.2469 109.122 30.3337 111.66 31.4615 114.423 31.4615 116.228 31.4615 117.862 30.9258 118.822 30.3892L118.144 27.26C117.552 27.5705 116.228 27.993 114.931 27.993 113.52 27.993 112.196 27.5705 111.293 26.5549 110.87 26.0758 110.56 25.4271 110.363 24.5811L116.493 24.5811 125.203 28.4366C124.6 29.5057 123.834 30.4936 122.899 31.3982ZM111.944 22.5796 111.907 22.5514 111.971 22.5796 111.944 22.5796ZM117.188 21.2536 117.44 21.2536 117.44 19.252 112.666 19.252 110.727 18.3937C110.894 18.0185 111.091 17.6829 111.321 17.4201 112.196 16.347 113.436 15.8967 114.79 15.8967 116.031 15.8967 117.186 16.2626 117.919 16.5731L118.708 13.3586C117.693 12.9083 116.199 12.5136 114.479 12.5136 111.829 12.5136 109.573 13.5848 107.966 15.3888 107.609 15.801 107.3 16.2636 107.019 16.7531L101.48 14.3018C102.017 13.4969 102.648 12.7238 103.379 11.9867 106.022 9.29136 109.253 7.94367 113.076 7.94367 116.898 7.94367 120.145 9.29136 122.815 11.9867 125.513 14.6534 126.861 17.909 126.861 21.7556 126.861 23.0231 126.717 24.2187 126.434 25.3455L117.188 21.2536Z" transform="matrix(1.00984 0 0 1 9.00073 651.014)"/></g></svg>